<svg width="200" height="25" viewBox="0 0 200 25" fill="none" xmlns="http://www.w3.org/2000/svg">
<path d="M21.8871 4.6803H1.1129C0.49923 4.6803 0 5.11441 0 5.64804V16.2932C0 16.8268 0.49923 17.2609 1.1129 17.2609H21.8871C22.5008 17.2609 23 16.8268 23 16.2932V5.64804C23 5.11441 22.5008 4.6803 21.8871 4.6803Z" fill="#FF4F19"/>
<path d="M12.613 15.6481H10.3872V17.261H12.613V15.6481Z" fill="#E3001E"/>
<path d="M21.5264 14.6803V15.648C21.5264 15.8262 21.3603 15.9706 21.1554 15.9706H1.86511C1.66024 15.9706 1.49414 15.8262 1.49414 15.648V14.6803L3.70979 13.7125L12.613 14.0351L20.0324 13.7125L21.5264 14.6803Z" fill="#E6BE8A"/>
<path d="M2.01461 15.1257C5.06299 14.0314 8.51044 14.098 11.5103 15.3254V3.71254C8.41153 2.4446 4.83522 2.41536 1.71445 3.6248C1.58016 3.67686 1.49414 3.79504 1.49414 3.9229V14.8308C1.49414 15.0638 1.76694 15.2146 2.01461 15.1257Z" fill="#FFEBB7"/>
<path d="M11.5103 15.3254C14.5101 14.0979 17.9575 14.0314 21.0059 15.1257C21.2536 15.2146 21.5264 15.0638 21.5264 14.8308V3.9229C21.5264 3.79504 21.4404 3.67686 21.3061 3.6248C18.1853 2.41536 14.6089 2.4446 11.5103 3.71254V15.3254V15.3254Z" fill="#FFD788"/>
<path d="M12.9941 13.2188C12.8361 13.2188 12.6897 13.1305 12.6401 12.9927C12.5789 12.8228 12.6876 12.6417 12.8828 12.5883C13.2581 12.4857 13.6443 12.3981 14.0309 12.3277C14.2309 12.2912 14.4279 12.4025 14.47 12.5773C14.512 12.7516 14.3838 12.9225 14.183 12.9591C13.82 13.0252 13.4574 13.1076 13.1053 13.2038C13.0683 13.2139 13.0306 13.2188 12.9941 13.2188Z" fill="#868491"/>
<path d="M20.0423 13.2188C20.0058 13.2188 19.9681 13.2139 19.9311 13.2038C18.5313 12.8216 17.0804 12.6784 15.6201 12.7795C15.4128 12.7924 15.2372 12.6609 15.2209 12.4834C15.2049 12.3057 15.3571 12.1504 15.5614 12.1363C17.1199 12.0298 18.6632 12.1813 20.1536 12.5883C20.3489 12.6417 20.4575 12.8228 20.3963 12.9928C20.3466 13.1306 20.2003 13.2188 20.0423 13.2188Z" fill="#868491"/>
<path d="M20.0424 11.9247C20.0058 11.9247 19.9681 11.9198 19.9312 11.9097C17.6982 11.2998 15.3383 11.2998 13.1053 11.9097C12.9089 11.9631 12.701 11.8684 12.6401 11.6986C12.5789 11.5287 12.6876 11.3476 12.8828 11.2942C15.2615 10.6446 17.775 10.6446 20.1536 11.2942C20.3489 11.3476 20.4576 11.5287 20.3964 11.6986C20.3467 11.8365 20.2003 11.9247 20.0424 11.9247Z" fill="#868491"/>
<path d="M12.9941 10.6381C12.8361 10.6381 12.6897 10.5498 12.6401 10.412C12.5789 10.2421 12.6876 10.061 12.8828 10.0076C14.2482 9.63491 15.6651 9.47628 17.0924 9.53459C17.2967 9.5431 17.455 9.69414 17.4453 9.87213C17.4358 10.0504 17.2648 10.1865 17.0569 10.1791C15.7176 10.1241 14.387 10.2731 13.1052 10.6231C13.0683 10.6332 13.0306 10.6381 12.9941 10.6381Z" fill="#868491"/>
<path d="M20.0422 10.638C20.0056 10.638 19.9679 10.6332 19.931 10.6231C19.4622 10.495 18.9786 10.3923 18.4935 10.318C18.2917 10.2869 18.1569 10.1197 18.1928 9.94421C18.2283 9.76888 18.421 9.65155 18.6225 9.68259C19.1391 9.76183 19.6539 9.87114 20.1535 10.0076C20.3487 10.0609 20.4574 10.2421 20.3962 10.412C20.3465 10.5498 20.2001 10.638 20.0422 10.638Z" fill="#868491"/>
<path d="M20.0424 9.34397C20.0058 9.34397 19.9681 9.33909 19.9312 9.32901C17.6982 8.71913 15.3383 8.71913 13.1053 9.32901C12.9089 9.38207 12.701 9.2876 12.6401 9.11796C12.5789 8.948 12.6876 8.76687 12.8828 8.71349C15.2615 8.06393 17.775 8.06393 20.1536 8.71349C20.3489 8.76687 20.4576 8.948 20.3964 9.11796C20.3467 9.25578 20.2003 9.34397 20.0424 9.34397Z" fill="#868491"/>
<path d="M12.9941 8.05368C12.8361 8.05368 12.6897 7.96545 12.6401 7.82767C12.5789 7.65771 12.6876 7.47658 12.8828 7.4232C13.6291 7.21937 14.4015 7.07796 15.1793 7.00296C15.3857 6.98138 15.5665 7.11118 15.589 7.28787C15.6114 7.46493 15.4647 7.62449 15.2611 7.644C14.5312 7.71457 13.8055 7.84735 13.1053 8.03872C13.0683 8.04876 13.0306 8.05368 12.9941 8.05368Z" fill="#868491"/>
<path d="M20.0424 8.05367C20.0058 8.05367 19.9681 8.04879 19.9312 8.03871C18.8838 7.7525 17.7963 7.59972 16.6982 7.58476C16.4932 7.58194 16.3298 7.43528 16.3331 7.25714C16.3363 7.07915 16.5153 6.92919 16.7098 6.9396C17.8792 6.95565 19.0382 7.11839 20.1536 7.42315C20.3489 7.47653 20.4576 7.65766 20.3963 7.82762C20.3463 7.96544 20.2003 8.05367 20.0424 8.05367Z" fill="#868491"/>
<path d="M12.9941 6.7671C12.8361 6.7671 12.6897 6.67887 12.6401 6.54109C12.5789 6.37113 12.6876 6.19 12.8828 6.13661C14.4993 5.69512 16.1722 5.55335 17.8575 5.71637C18.0612 5.73589 18.2079 5.89545 18.1854 6.0725C18.1629 6.2494 17.9833 6.38045 17.7756 6.35742C16.1947 6.20496 14.6228 6.33742 13.1052 6.75214C13.0683 6.76222 13.0306 6.7671 12.9941 6.7671Z" fill="#868491"/>
<path d="M20.0422 6.76718C20.0056 6.76718 19.9679 6.7623 19.931 6.75222C19.6956 6.68779 19.4539 6.62936 19.2123 6.57819C19.0134 6.53597 18.8913 6.36145 18.9398 6.18835C18.9884 6.01524 19.1877 5.9094 19.3883 5.95129C19.6452 6.00581 19.9024 6.06815 20.1535 6.1367C20.3487 6.19008 20.4574 6.37121 20.3962 6.54117C20.3465 6.67899 20.2002 6.76718 20.0422 6.76718Z" fill="#868491"/>
<path d="M12.9941 5.4731C12.8361 5.4731 12.6897 5.38475 12.6401 5.24693C12.5789 5.07681 12.6875 4.89584 12.8832 4.84261C13.1382 4.77298 13.3954 4.71076 13.6479 4.65737C13.8458 4.61499 14.0475 4.72148 14.0961 4.89459C14.1446 5.06769 14.0222 5.24221 13.8233 5.28427C13.5864 5.33435 13.3447 5.39277 13.1049 5.45814C13.0679 5.46818 13.0306 5.4731 12.9941 5.4731Z" fill="#868491"/>
<path d="M20.0423 5.47303C20.0057 5.47303 19.968 5.46815 19.9311 5.45807C18.4132 5.04335 16.842 4.91106 15.2606 5.06335C15.0556 5.08509 14.8733 4.95513 14.8509 4.77843C14.8285 4.60138 14.9752 4.44182 15.1787 4.42231C16.8633 4.25928 18.5366 4.40106 20.1535 4.84255C20.3487 4.89593 20.4574 5.07706 20.3962 5.24702C20.3466 5.38481 20.2002 5.47303 20.0423 5.47303Z" fill="#868491"/>
<path d="M2.97795 13.2188C2.82001 13.2188 2.67366 13.1305 2.624 12.9927C2.56279 12.8228 2.67144 12.6417 2.8667 12.5883C3.24203 12.4857 3.62821 12.3981 4.01476 12.3277C4.21508 12.2912 4.41183 12.4025 4.45384 12.5773C4.49586 12.7516 4.36764 12.9225 4.1669 12.9591C3.80391 13.0252 3.44129 13.1076 3.08915 13.2038C3.05219 13.2139 3.01454 13.2188 2.97795 13.2188Z" fill="#B4B6BC"/>
<path d="M10.0262 13.2188C9.98964 13.2188 9.95194 13.2139 9.91503 13.2038C8.51556 12.8216 7.06428 12.6784 5.60397 12.7795C5.39386 12.7924 5.22104 12.6609 5.20476 12.4834C5.18881 12.3057 5.341 12.1504 5.54531 12.1363C7.10379 12.0298 8.64674 12.1813 10.1375 12.5883C10.3327 12.6417 10.4414 12.8228 10.3802 12.9928C10.3305 13.1306 10.1842 13.2188 10.0262 13.2188Z" fill="#B4B6BC"/>
<path d="M10.0263 11.9247C9.9897 11.9247 9.952 11.9198 9.91509 11.9097C7.68205 11.2998 5.32219 11.2998 3.08915 11.9097C2.89207 11.9631 2.68484 11.8684 2.624 11.6986C2.56279 11.5287 2.67144 11.3476 2.8667 11.2942C5.2454 10.6446 7.75884 10.6446 10.1375 11.2942C10.3328 11.3476 10.4415 11.5287 10.3802 11.6986C10.3306 11.8365 10.1842 11.9247 10.0263 11.9247Z" fill="#B4B6BC"/>
<path d="M2.97795 10.6381C2.82001 10.6381 2.67366 10.5498 2.624 10.412C2.56279 10.2421 2.67144 10.061 2.8667 10.0076C4.2321 9.63491 5.65003 9.47628 7.07631 9.53459C7.28062 9.5431 7.43893 9.69414 7.42914 9.87213C7.41936 10.0504 7.24653 10.1865 7.04079 10.1791C5.70108 10.1241 4.37084 10.2731 3.0891 10.6231C3.05219 10.6332 3.01454 10.6381 2.97795 10.6381Z" fill="#B4B6BC"/>
<path d="M10.0265 10.638C9.98996 10.638 9.95226 10.6332 9.91535 10.6231C9.44658 10.495 8.96293 10.3923 8.47784 10.318C8.27604 10.2869 8.14128 10.1197 8.17718 9.94421C8.21232 9.76888 8.40578 9.65155 8.60685 9.68259C9.12347 9.76183 9.63823 9.87114 10.1378 10.0076C10.3331 10.0609 10.4418 10.2421 10.3805 10.412C10.3308 10.5498 10.1845 10.638 10.0265 10.638Z" fill="#B4B6BC"/>
<path d="M2.97795 9.34398C2.82001 9.34398 2.67366 9.25576 2.624 9.11798C2.56279 8.94802 2.67144 8.76689 2.8667 8.7135C4.97552 8.13781 7.22557 8.0737 9.37204 8.52826C9.5713 8.57048 9.69339 8.74499 9.64484 8.9181C9.59629 9.09104 9.39453 9.1964 9.19671 9.15515C7.18101 8.72781 5.06895 8.78846 3.08915 9.32906C3.05219 9.3391 3.01454 9.34398 2.97795 9.34398Z" fill="#B4B6BC"/>
<path d="M2.97795 8.05368C2.82001 8.05368 2.67366 7.96545 2.624 7.82767C2.56279 7.65771 2.67144 7.47658 2.8667 7.4232C3.613 7.21937 4.38535 7.07796 5.16313 7.00296C5.36782 6.98138 5.55042 7.11118 5.57287 7.28787C5.59531 7.46493 5.44859 7.62449 5.24503 7.644C4.51505 7.71457 3.78939 7.84735 3.08915 8.03872C3.05219 8.04876 3.01454 8.05368 2.97795 8.05368Z" fill="#B4B6BC"/>
<path d="M9.28468 7.87395C9.2557 7.87395 9.22598 7.87097 9.19667 7.8648C8.37433 7.69061 7.52806 7.59625 6.68211 7.58476C6.47706 7.58194 6.3137 7.43528 6.31694 7.25714C6.32019 7.07915 6.48031 6.92919 6.69371 6.9396C7.59502 6.95206 8.49601 7.05238 9.372 7.2379C9.57126 7.28012 9.69335 7.45464 9.6448 7.62774C9.60344 7.7752 9.45167 7.87395 9.28468 7.87395Z" fill="#B4B6BC"/>
<path d="M2.97795 6.7671C2.82001 6.7671 2.67366 6.67887 2.624 6.54109C2.56279 6.37113 2.67144 6.19 2.8667 6.13661C4.48352 5.69512 6.15649 5.55335 7.84143 5.71637C8.04504 5.73589 8.19176 5.89545 8.16927 6.0725C8.14683 6.2494 7.96566 6.38045 7.75954 6.35742C6.17857 6.20496 4.60668 6.33742 3.0891 6.75214C3.05219 6.76222 3.01454 6.7671 2.97795 6.7671Z" fill="#B4B6BC"/>
<path d="M2.97795 5.4731C2.82001 5.4731 2.67366 5.38475 2.624 5.24693C2.56279 5.07681 2.67143 4.89584 2.86707 4.84261C3.12211 4.77298 3.37933 4.71076 3.63182 4.65737C3.82927 4.61499 4.0314 4.72148 4.07995 4.89459C4.1285 5.06769 4.00604 5.24221 3.80715 5.28427C3.57024 5.33435 3.3286 5.39277 3.08877 5.45814C3.05182 5.46818 3.01453 5.4731 2.97795 5.4731Z" fill="#B4B6BC"/>
<path d="M9.28459 5.29317C9.25561 5.29317 9.22589 5.29019 9.19658 5.28402C7.9 5.00946 6.57045 4.93559 5.24452 5.06333C5.04091 5.08507 4.85723 4.95543 4.83479 4.77841C4.81234 4.60136 4.95906 4.4418 5.16263 4.42228C6.57439 4.28555 7.99126 4.36495 9.37186 4.65712C9.57112 4.69934 9.69321 4.87386 9.64466 5.04696C9.60335 5.19438 9.45157 5.29317 9.28459 5.29317Z" fill="#B4B6BC"/>
<path d="M9.28471 8.7123C9.28476 8.84109 9.44984 8.91795 9.57309 8.84649L10.3976 8.36851L11.2221 8.84649C11.3454 8.91795 11.5105 8.84113 11.5105 8.7123V3.73932C11.5105 3.6119 11.4251 3.49428 11.2911 3.4425C10.7135 3.21911 10.1199 3.03996 9.51689 2.90145C9.39925 2.87444 9.28365 2.95355 9.28369 3.05936L9.28471 8.7123Z" fill="#5D647F"/>
<path d="M32.168 5.28C33.1173 5.28 33.9387 5.46133 34.632 5.824C35.3253 6.176 35.912 6.69867 36.392 7.392L35.24 8.496C34.8347 7.87733 34.376 7.43467 33.864 7.168C33.3627 6.89067 32.7653 6.752 32.072 6.752C31.2933 6.752 30.728 6.90133 30.376 7.2C30.024 7.49867 29.848 7.86133 29.848 8.288C29.848 8.61867 29.96 8.90667 30.184 9.152C30.4187 9.39733 30.8507 9.58933 31.48 9.728L33.624 10.208C34.6373 10.4427 35.3573 10.7893 35.784 11.248C36.2213 11.696 36.44 12.272 36.44 12.976C36.44 13.6267 36.264 14.192 35.912 14.672C35.56 15.1413 35.0693 15.5093 34.44 15.776C33.8107 16.032 33.08 16.16 32.248 16.16C31.128 16.16 30.1733 15.952 29.384 15.536C28.5947 15.1093 27.9867 14.5813 27.56 13.952L28.744 12.768C29.0747 13.3333 29.5387 13.7973 30.136 14.16C30.744 14.512 31.464 14.688 32.296 14.688C33.032 14.688 33.608 14.56 34.024 14.304C34.4507 14.0373 34.664 13.6587 34.664 13.168C34.664 12.8693 34.5573 12.6027 34.344 12.368C34.1413 12.1227 33.7573 11.936 33.192 11.808L30.872 11.28C29.912 11.0773 29.2027 10.7413 28.744 10.272C28.2853 9.80267 28.056 9.216 28.056 8.512C28.056 7.91467 28.2213 7.37067 28.552 6.88C28.8827 6.38933 29.352 6 29.96 5.712C30.5787 5.424 31.3147 5.28 32.168 5.28ZM42.7726 10.864C42.7726 10.3307 42.6233 9.92 42.3246 9.632C42.0366 9.33333 41.6366 9.184 41.1246 9.184C40.6446 9.184 40.2286 9.296 39.8766 9.52C39.5353 9.744 39.29 10.1067 39.1406 10.608L37.7006 10C37.9033 9.34933 38.298 8.82667 38.8846 8.432C39.482 8.03733 40.25 7.84 41.1886 7.84C41.818 7.84 42.378 7.94667 42.8686 8.16C43.37 8.36267 43.7593 8.67733 44.0366 9.104C44.3246 9.52 44.4686 10.048 44.4686 10.688V14.256C44.4686 14.6507 44.666 14.848 45.0606 14.848C45.2526 14.848 45.4393 14.8213 45.6206 14.768L45.5246 15.952C45.2793 16.0693 44.97 16.128 44.5966 16.128C44.17 16.128 43.802 16.032 43.4926 15.84C43.1833 15.648 42.9753 15.36 42.8686 14.976C42.6126 15.3707 42.2446 15.6693 41.7646 15.872C41.2846 16.064 40.8046 16.16 40.3246 16.16C39.5673 16.16 38.938 15.9787 38.4366 15.616C37.9353 15.2533 37.6846 14.7093 37.6846 13.984C37.6846 13.3973 37.8766 12.912 38.2606 12.528C38.6553 12.144 39.21 11.8773 39.9246 11.728L42.7726 11.168V10.864ZM39.4126 13.856C39.4126 14.1547 39.5246 14.3947 39.7486 14.576C39.9833 14.7467 40.2926 14.832 40.6766 14.832C41.0393 14.832 41.3806 14.7733 41.7006 14.656C42.0206 14.5387 42.2766 14.3467 42.4686 14.08C42.6713 13.8133 42.7726 13.4667 42.7726 13.04V12.368L40.7566 12.784C40.298 12.8693 39.9566 12.992 39.7326 13.152C39.5193 13.312 39.4126 13.5467 39.4126 13.856ZM51.6558 10.864C51.6558 10.3307 51.5064 9.92 51.2078 9.632C50.9198 9.33333 50.5198 9.184 50.0078 9.184C49.5278 9.184 49.1118 9.296 48.7598 9.52C48.4184 9.744 48.1731 10.1067 48.0238 10.608L46.5838 10C46.7864 9.34933 47.1811 8.82667 47.7678 8.432C48.3651 8.03733 49.1331 7.84 50.0718 7.84C50.7011 7.84 51.2611 7.94667 51.7518 8.16C52.2531 8.36267 52.6424 8.67733 52.9198 9.104C53.2078 9.52 53.3518 10.048 53.3518 10.688V14.256C53.3518 14.6507 53.5491 14.848 53.9438 14.848C54.1358 14.848 54.3224 14.8213 54.5038 14.768L54.4078 15.952C54.1624 16.0693 53.8531 16.128 53.4798 16.128C53.0531 16.128 52.6851 16.032 52.3758 15.84C52.0664 15.648 51.8584 15.36 51.7518 14.976C51.4958 15.3707 51.1278 15.6693 50.6478 15.872C50.1678 16.064 49.6878 16.16 49.2078 16.16C48.4504 16.16 47.8211 15.9787 47.3198 15.616C46.8184 15.2533 46.5678 14.7093 46.5678 13.984C46.5678 13.3973 46.7598 12.912 47.1438 12.528C47.5384 12.144 48.0931 11.8773 48.8078 11.728L51.6558 11.168V10.864ZM48.2958 13.856C48.2958 14.1547 48.4078 14.3947 48.6318 14.576C48.8664 14.7467 49.1758 14.832 49.5598 14.832C49.9224 14.832 50.2638 14.7733 50.5838 14.656C50.9038 14.5387 51.1598 14.3467 51.3518 14.08C51.5544 13.8133 51.6558 13.4667 51.6558 13.04V12.368L49.6398 12.784C49.1811 12.8693 48.8398 12.992 48.6158 13.152C48.4024 13.312 48.2958 13.5467 48.2958 13.856ZM59.6768 5.28C60.6261 5.28 61.4474 5.46133 62.1408 5.824C62.8341 6.176 63.4208 6.69867 63.9008 7.392L62.7488 8.496C62.3434 7.87733 61.8848 7.43467 61.3728 7.168C60.8714 6.89067 60.2741 6.752 59.5808 6.752C58.8021 6.752 58.2368 6.90133 57.8848 7.2C57.5328 7.49867 57.3568 7.86133 57.3568 8.288C57.3568 8.61867 57.4688 8.90667 57.6928 9.152C57.9274 9.39733 58.3594 9.58933 58.9888 9.728L61.1328 10.208C62.1461 10.4427 62.8661 10.7893 63.2928 11.248C63.7301 11.696 63.9488 12.272 63.9488 12.976C63.9488 13.6267 63.7728 14.192 63.4208 14.672C63.0688 15.1413 62.5781 15.5093 61.9488 15.776C61.3194 16.032 60.5888 16.16 59.7568 16.16C58.6368 16.16 57.6821 15.952 56.8928 15.536C56.1034 15.1093 55.4954 14.5813 55.0688 13.952L56.2528 12.768C56.5834 13.3333 57.0474 13.7973 57.6448 14.16C58.2528 14.512 58.9728 14.688 59.8048 14.688C60.5408 14.688 61.1168 14.56 61.5328 14.304C61.9594 14.0373 62.1728 13.6587 62.1728 13.168C62.1728 12.8693 62.0661 12.6027 61.8528 12.368C61.6501 12.1227 61.2661 11.936 60.7008 11.808L58.3808 11.28C57.4208 11.0773 56.7114 10.7413 56.2528 10.272C55.7941 9.80267 55.5648 9.216 55.5648 8.512C55.5648 7.91467 55.7301 7.37067 56.0608 6.88C56.3914 6.38933 56.8608 6 57.4688 5.712C58.0874 5.424 58.8234 5.28 59.6768 5.28ZM73.4721 5.44V6.912H69.8561V16H68.1441V6.912H64.5281V5.44H73.4721ZM76.7469 7.84C77.5255 7.84 78.2135 8.00533 78.8109 8.336C79.4082 8.66667 79.8722 9.14667 80.2029 9.776C80.5442 10.3947 80.7149 11.136 80.7149 12C80.7149 12.864 80.5442 13.6107 80.2029 14.24C79.8722 14.8587 79.4082 15.3333 78.8109 15.664C78.2135 15.9947 77.5255 16.16 76.7469 16.16C75.9682 16.16 75.2802 15.9947 74.6829 15.664C74.0855 15.3333 73.6162 14.8587 73.2749 14.24C72.9335 13.6107 72.7629 12.864 72.7629 12C72.7629 11.136 72.9335 10.3947 73.2749 9.776C73.6162 9.14667 74.0855 8.66667 74.6829 8.336C75.2802 8.00533 75.9682 7.84 76.7469 7.84ZM76.7469 9.184C76.0429 9.184 75.4882 9.42933 75.0829 9.92C74.6775 10.4 74.4749 11.0933 74.4749 12C74.4749 12.9067 74.6775 13.6053 75.0829 14.096C75.4882 14.576 76.0429 14.816 76.7469 14.816C77.4509 14.816 78.0002 14.576 78.3949 14.096C78.8002 13.6053 79.0029 12.9067 79.0029 12C79.0029 11.0933 78.8002 10.4 78.3949 9.92C78.0002 9.42933 77.4509 9.184 76.7469 9.184ZM82.5486 16V8H84.0686L84.1486 9.344C84.426 8.832 84.794 8.45333 85.2526 8.208C85.722 7.96267 86.218 7.84 86.7406 7.84C87.3166 7.84 87.8446 7.97333 88.3246 8.24C88.8153 8.496 89.1833 8.88533 89.4286 9.408C89.5993 9.056 89.834 8.76267 90.1326 8.528C90.4313 8.29333 90.762 8.12267 91.1246 8.016C91.4873 7.89867 91.8446 7.84 92.1966 7.84C92.7086 7.84 93.1886 7.94667 93.6366 8.16C94.0846 8.37333 94.4473 8.69867 94.7246 9.136C95.002 9.57333 95.1406 10.1333 95.1406 10.816V16H93.4286V11.088C93.4286 10.4267 93.2686 9.95733 92.9486 9.68C92.6393 9.392 92.25 9.248 91.7806 9.248C91.226 9.248 90.7406 9.456 90.3246 9.872C89.9086 10.2773 89.7006 10.8693 89.7006 11.648V16H87.9886V11.088C87.9886 10.4267 87.8286 9.95733 87.5086 9.68C87.1993 9.392 86.81 9.248 86.3406 9.248C86.0206 9.248 85.7006 9.33333 85.3806 9.504C85.0606 9.67467 84.794 9.94133 84.5806 10.304C84.3673 10.6667 84.2606 11.1467 84.2606 11.744V16H82.5486ZM100.936 16.16C100.136 16.16 99.4321 15.9947 98.8241 15.664C98.2268 15.3333 97.7575 14.8587 97.4161 14.24C97.0748 13.6107 96.9041 12.864 96.9041 12C96.9041 11.136 97.0695 10.3947 97.4001 9.776C97.7415 9.14667 98.2055 8.66667 98.7921 8.336C99.3895 8.00533 100.072 7.84 100.84 7.84C101.619 7.84 102.28 8 102.824 8.32C103.368 8.64 103.784 9.07733 104.072 9.632C104.36 10.1867 104.504 10.816 104.504 11.52C104.504 11.7227 104.499 11.9093 104.488 12.08C104.477 12.2507 104.461 12.3947 104.44 12.512H98.5841C98.6588 13.2587 98.8988 13.8293 99.3041 14.224C99.7201 14.608 100.253 14.8 100.904 14.8C101.437 14.8 101.869 14.6987 102.2 14.496C102.531 14.2933 102.792 14.0107 102.984 13.648L104.344 14.288C104.067 14.8747 103.624 15.3333 103.016 15.664C102.419 15.9947 101.725 16.16 100.936 16.16ZM100.808 9.2C100.221 9.2 99.7361 9.37067 99.3521 9.712C98.9788 10.0533 98.7388 10.5493 98.6321 11.2H102.84C102.797 10.56 102.595 10.0693 102.232 9.728C101.869 9.376 101.395 9.2 100.808 9.2Z" fill="white"/>
</svg>
